<?xml version="1.0" encoding="UTF-8"?>
<!-- Dedicated PWA / favicon icon. Combines a solid red background
     with the white Union logo so the home-screen icon is legible
     regardless of the launcher's wallpaper, and so a maskable
     crop (~80% center safe zone) still shows the brand color
     instead of the OS's default white pad. -->
<svg xmlns="http://www.w3.org/2000/svg" viewBox="0 0 1080 1080">
	<rect width="1080" height="1080" fill="#991e2a"/>
	<g fill="#ffffff">
		<path d="M911.43,538.1L732.16,218.95c-1.67-2.97-4.81-4.81-8.22-4.81H348.03c-7.22,0-11.75,7.78-8.2,14.06l173.85,307.5c1.65,2.92,1.62,6.5-0.07,9.4L334.06,851.67c-3.68,6.28,0.85,14.18,8.13,14.18h376.09c3.34,0,6.42-1.76,8.12-4.64L911.33,547.5C913.04,544.61,913.07,541.03,911.43,538.1z"/>
		<path d="M298.99,305.86L168.58,536.53c-1.65,2.92-1.62,6.5,0.07,9.4l130.41,222.68c4.86,8.29,17.55,4.85,17.55-4.76V310.5C316.62,300.81,303.76,297.43,298.99,305.86z"/>
	</g>
</svg>
